<svg xmlns="http://www.w3.org/2000/svg" xmlns:xlink="http://www.w3.org/1999/xlink" width="150" zoomAndPan="magnify" viewBox="0 0 112.5 112.499997" height="150" preserveAspectRatio="xMidYMid meet" version="1.0"><defs><clipPath id="65229d2730"><path d="M 29.980469 29.980469 L 82.480469 29.980469 L 82.480469 82.480469 L 29.980469 82.480469 Z M 29.980469 29.980469 " clip-rule="nonzero"/></clipPath></defs><g clip-path="url(#65229d2730)"><path fill="#ffffff" d="M 37.855469 29.980469 L 74.605469 29.980469 C 75.125 29.980469 75.636719 30.03125 76.144531 30.132812 C 76.648438 30.234375 77.140625 30.382812 77.621094 30.582031 C 78.097656 30.777344 78.550781 31.019531 78.980469 31.308594 C 79.410156 31.597656 79.808594 31.921875 80.175781 32.289062 C 80.539062 32.652344 80.867188 33.050781 81.152344 33.480469 C 81.441406 33.910156 81.683594 34.363281 81.882812 34.84375 C 82.078125 35.320312 82.230469 35.8125 82.328125 36.320312 C 82.429688 36.828125 82.480469 37.339844 82.480469 37.855469 L 82.480469 74.605469 C 82.480469 75.125 82.429688 75.636719 82.328125 76.144531 C 82.230469 76.648438 82.078125 77.140625 81.882812 77.621094 C 81.683594 78.097656 81.441406 78.550781 81.152344 78.980469 C 80.867188 79.410156 80.539062 79.808594 80.175781 80.175781 C 79.808594 80.539062 79.410156 80.867188 78.980469 81.152344 C 78.550781 81.441406 78.097656 81.683594 77.621094 81.882812 C 77.140625 82.078125 76.648438 82.230469 76.144531 82.328125 C 75.636719 82.429688 75.125 82.480469 74.605469 82.480469 L 37.855469 82.480469 C 37.339844 82.480469 36.828125 82.429688 36.320312 82.328125 C 35.8125 82.230469 35.320312 82.078125 34.84375 81.882812 C 34.363281 81.683594 33.910156 81.441406 33.480469 81.152344 C 33.050781 80.867188 32.652344 80.539062 32.289062 80.175781 C 31.921875 79.808594 31.597656 79.410156 31.308594 78.980469 C 31.019531 78.550781 30.777344 78.097656 30.582031 77.621094 C 30.382812 77.140625 30.234375 76.648438 30.132812 76.144531 C 30.03125 75.636719 29.980469 75.125 29.980469 74.605469 L 29.980469 37.855469 C 29.980469 37.339844 30.03125 36.828125 30.132812 36.320312 C 30.234375 35.8125 30.382812 35.320312 30.582031 34.84375 C 30.777344 34.363281 31.019531 33.910156 31.308594 33.480469 C 31.597656 33.050781 31.921875 32.652344 32.289062 32.289062 C 32.652344 31.921875 33.050781 31.597656 33.480469 31.308594 C 33.910156 31.019531 34.363281 30.777344 34.84375 30.582031 C 35.320312 30.382812 35.8125 30.234375 36.320312 30.132812 C 36.828125 30.03125 37.339844 29.980469 37.855469 29.980469 Z M 37.855469 29.980469 " fill-opacity="1" fill-rule="nonzero"/></g><path fill="#d54c3f" d="M 40.347656 42.546875 L 72.074219 42.546875 C 72.417969 42.546875 72.75 42.613281 73.066406 42.746094 C 73.386719 42.878906 73.664062 43.066406 73.910156 43.308594 C 74.152344 43.550781 74.339844 43.832031 74.472656 44.152344 C 74.605469 44.46875 74.667969 44.800781 74.667969 45.144531 L 74.667969 67.335938 C 74.667969 67.679688 74.605469 68.011719 74.472656 68.328125 C 74.339844 68.648438 74.152344 68.925781 73.910156 69.171875 C 73.664062 69.414062 73.386719 69.601562 73.066406 69.734375 C 72.75 69.867188 72.417969 69.929688 72.074219 69.929688 L 40.347656 69.929688 C 40.003906 69.929688 39.671875 69.867188 39.355469 69.734375 C 39.035156 69.601562 38.753906 69.414062 38.511719 69.171875 C 38.269531 68.925781 38.082031 68.648438 37.949219 68.328125 C 37.816406 68.011719 37.75 67.679688 37.75 67.335938 L 37.75 45.144531 C 37.75 44.800781 37.816406 44.46875 37.949219 44.152344 C 38.082031 43.832031 38.269531 43.550781 38.511719 43.308594 C 38.753906 43.066406 39.035156 42.878906 39.355469 42.746094 C 39.671875 42.613281 40.003906 42.546875 40.347656 42.546875 Z M 40.347656 42.546875 " fill-opacity="1" fill-rule="nonzero"/><path fill="#eaeaea" d="M 42.746094 42.679688 L 70.886719 42.679688 L 70.886719 69.929688 L 42.746094 69.929688 Z M 42.746094 42.679688 " fill-opacity="1" fill-rule="nonzero"/><path fill="#e3e3e3" d="M 53.910156 61.246094 L 42.746094 69.929688 L 42.75 50.191406 L 53.910156 61.246094 " fill-opacity="1" fill-rule="nonzero"/><path fill="#000000" d="M 62.519531 69.933594 L 39.433594 46.855469 L 70.984375 46.105469 L 70.886719 69.929688 Z M 62.519531 69.933594 " fill-opacity="0.098" fill-rule="nonzero"/><path fill="#efefef" d="M 40.074219 42.558594 L 56.722656 54.867188 L 72.042969 42.5625 Z M 40.074219 42.558594 " fill-opacity="1" fill-rule="nonzero"/><path fill="#de5145" d="M 73.734375 46.683594 C 73.984375 46.511719 74.1875 46.296875 74.351562 46.042969 C 74.515625 45.789062 74.625 45.511719 74.675781 45.210938 C 74.730469 44.914062 74.722656 44.617188 74.65625 44.320312 C 74.59375 44.027344 74.472656 43.753906 74.300781 43.503906 C 74.125 43.257812 73.910156 43.050781 73.65625 42.890625 C 73.402344 42.726562 73.125 42.617188 72.828125 42.566406 C 72.527344 42.511719 72.230469 42.519531 71.9375 42.582031 C 71.640625 42.648438 71.367188 42.769531 71.121094 42.941406 L 56.445312 53.617188 L 56.445312 53.625 L 56.441406 53.625 L 41.773438 42.941406 C 41.523438 42.773438 41.246094 42.65625 40.949219 42.589844 C 40.648438 42.527344 40.351562 42.523438 40.050781 42.578125 C 39.75 42.632812 39.472656 42.742188 39.214844 42.90625 C 38.957031 43.070312 38.742188 43.277344 38.570312 43.523438 C 38.394531 43.773438 38.277344 44.042969 38.214844 44.339844 C 38.148438 44.632812 38.144531 44.929688 38.199219 45.226562 C 38.257812 45.523438 38.367188 45.796875 38.53125 46.050781 C 38.699219 46.300781 38.90625 46.515625 39.160156 46.683594 L 39.097656 46.644531 L 56.449219 59.277344 M 73.800781 46.644531 L 56.367188 59.359375 " fill-opacity="1" fill-rule="nonzero"/></svg>