<svg xmlns="http://www.w3.org/2000/svg" xmlns:xlink="http://www.w3.org/1999/xlink" width="150" zoomAndPan="magnify" viewBox="0 0 112.5 112.499997" height="150" preserveAspectRatio="xMidYMid meet" version="1.0"><defs><clipPath id="b5f174427c"><path d="M 30.121094 30.121094 L 82.621094 30.121094 L 82.621094 82.621094 L 30.121094 82.621094 Z M 30.121094 30.121094 " clip-rule="nonzero"/></clipPath></defs><g clip-path="url(#b5f174427c)"><path fill="#1a4789" d="M 82.621094 74.636719 C 82.621094 79.042969 79.050781 82.613281 74.644531 82.613281 L 38.101562 82.613281 C 33.695312 82.613281 30.121094 79.042969 30.121094 74.636719 L 30.121094 38.09375 C 30.121094 33.6875 33.695312 30.117188 38.101562 30.117188 L 74.644531 30.117188 C 79.050781 30.117188 82.621094 33.6875 82.621094 38.09375 Z M 82.621094 74.636719 " fill-opacity="1" fill-rule="nonzero"/></g><path fill="#ffffff" d="M 64.910156 60.445312 L 65.757812 53.863281 L 59.238281 53.863281 L 59.238281 49.660156 C 59.238281 47.753906 59.769531 46.453125 62.503906 46.453125 L 65.984375 46.453125 L 65.984375 40.566406 C 65.382812 40.484375 63.316406 40.304688 60.90625 40.304688 C 55.882812 40.304688 52.441406 43.375 52.441406 49.007812 L 52.441406 53.863281 L 46.757812 53.863281 L 46.757812 60.445312 L 52.441406 60.445312 L 52.441406 77.335938 L 59.238281 77.335938 L 59.238281 60.445312 Z M 64.910156 60.445312 " fill-opacity="1" fill-rule="nonzero"/></svg>