<svg xmlns="http://www.w3.org/2000/svg" xmlns:xlink="http://www.w3.org/1999/xlink" width="150" zoomAndPan="magnify" viewBox="0 0 112.5 112.499997" height="150" preserveAspectRatio="xMidYMid meet" version="1.0"><defs><clipPath id="af4932ec49"><path d="M 29.980469 29.980469 L 82.480469 29.980469 L 82.480469 82.480469 L 29.980469 82.480469 Z M 29.980469 29.980469 " clip-rule="nonzero"/></clipPath></defs><g clip-path="url(#af4932ec49)"><path fill="#1d9bf0" d="M 75.917969 82.480469 L 36.542969 82.480469 C 32.921875 82.480469 29.980469 79.542969 29.980469 75.917969 L 29.980469 36.542969 C 29.980469 32.921875 32.921875 29.980469 36.542969 29.980469 L 75.917969 29.980469 C 79.542969 29.980469 82.480469 32.921875 82.480469 36.542969 L 82.480469 75.917969 C 82.480469 79.542969 79.542969 82.480469 75.917969 82.480469 Z M 75.917969 82.480469 " fill-opacity="1" fill-rule="nonzero"/></g><path fill="#ffffff" d="M 50.140625 69.566406 C 62.519531 69.566406 69.289062 59.300781 69.289062 50.417969 C 69.289062 50.128906 69.289062 49.839844 69.277344 49.550781 C 70.589844 48.605469 71.730469 47.410156 72.636719 46.058594 C 71.429688 46.597656 70.128906 46.953125 68.765625 47.121094 C 70.15625 46.296875 71.21875 44.96875 71.730469 43.394531 C 70.433594 44.167969 68.988281 44.722656 67.453125 45.023438 C 66.21875 43.710938 64.472656 42.894531 62.542969 42.894531 C 58.832031 42.894531 55.8125 45.914062 55.8125 49.628906 C 55.8125 50.15625 55.878906 50.667969 55.980469 51.164062 C 50.390625 50.890625 45.429688 48.199219 42.109375 44.128906 C 41.53125 45.128906 41.203125 46.28125 41.203125 47.515625 C 41.203125 49.851562 42.398438 51.914062 44.195312 53.121094 C 43.09375 53.082031 42.054688 52.78125 41.152344 52.28125 C 41.152344 52.308594 41.152344 52.332031 41.152344 52.371094 C 41.152344 55.628906 43.472656 58.359375 46.546875 58.972656 C 45.980469 59.132812 45.390625 59.210938 44.773438 59.210938 C 44.339844 59.210938 43.921875 59.171875 43.511719 59.09375 C 44.367188 61.769531 46.859375 63.710938 49.800781 63.765625 C 47.488281 65.578125 44.589844 66.652344 41.441406 66.652344 C 40.902344 66.652344 40.363281 66.625 39.839844 66.5625 C 42.804688 68.449219 46.347656 69.566406 50.140625 69.566406 " fill-opacity="1" fill-rule="nonzero"/></svg>