<svg xmlns="http://www.w3.org/2000/svg" xmlns:xlink="http://www.w3.org/1999/xlink" width="150" zoomAndPan="magnify" viewBox="0 0 112.5 112.499997" height="150" preserveAspectRatio="xMidYMid meet" version="1.0"><defs><clipPath id="0674270383"><path d="M 29.980469 28.238281 L 82.480469 28.238281 L 82.480469 80.738281 L 29.980469 80.738281 Z M 29.980469 28.238281 " clip-rule="nonzero"/></clipPath></defs><g clip-path="url(#0674270383)"><path fill="#7289da" d="M 37.855469 28.238281 L 74.605469 28.238281 C 75.125 28.238281 75.636719 28.285156 76.144531 28.386719 C 76.648438 28.488281 77.140625 28.636719 77.621094 28.835938 C 78.097656 29.035156 78.550781 29.277344 78.980469 29.5625 C 79.410156 29.851562 79.808594 30.175781 80.175781 30.542969 C 80.539062 30.910156 80.867188 31.304688 81.152344 31.738281 C 81.441406 32.167969 81.683594 32.621094 81.882812 33.097656 C 82.078125 33.574219 82.230469 34.066406 82.328125 34.574219 C 82.429688 35.082031 82.480469 35.59375 82.480469 36.113281 L 82.480469 72.863281 C 82.480469 73.378906 82.429688 73.890625 82.328125 74.398438 C 82.230469 74.90625 82.078125 75.398438 81.882812 75.875 C 81.683594 76.351562 81.441406 76.808594 81.152344 77.238281 C 80.867188 77.667969 80.539062 78.066406 80.175781 78.429688 C 79.808594 78.796875 79.410156 79.121094 78.980469 79.410156 C 78.550781 79.695312 78.097656 79.9375 77.621094 80.136719 C 77.140625 80.335938 76.648438 80.484375 76.144531 80.585938 C 75.636719 80.6875 75.125 80.738281 74.605469 80.738281 L 37.855469 80.738281 C 37.339844 80.738281 36.828125 80.6875 36.320312 80.585938 C 35.8125 80.484375 35.320312 80.335938 34.84375 80.136719 C 34.363281 79.9375 33.910156 79.695312 33.480469 79.410156 C 33.050781 79.121094 32.652344 78.796875 32.289062 78.429688 C 31.921875 78.066406 31.597656 77.667969 31.308594 77.238281 C 31.019531 76.808594 30.777344 76.351562 30.582031 75.875 C 30.382812 75.398438 30.234375 74.90625 30.132812 74.398438 C 30.03125 73.890625 29.980469 73.378906 29.980469 72.863281 L 29.980469 36.113281 C 29.980469 35.59375 30.03125 35.082031 30.132812 34.574219 C 30.234375 34.066406 30.382812 33.574219 30.582031 33.097656 C 30.777344 32.621094 31.019531 32.167969 31.308594 31.738281 C 31.597656 31.304688 31.921875 30.910156 32.289062 30.542969 C 32.652344 30.175781 33.050781 29.851562 33.480469 29.5625 C 33.910156 29.277344 34.363281 29.035156 34.84375 28.835938 C 35.320312 28.636719 35.8125 28.488281 36.320312 28.386719 C 36.828125 28.285156 37.339844 28.238281 37.855469 28.238281 Z M 37.855469 28.238281 " fill-opacity="1" fill-rule="nonzero"/></g><path fill="#ffffff" d="M 65.460938 68.433594 L 63.304688 65.867188 C 67.511719 64.742188 69.152344 61.871094 69.152344 61.871094 C 63.820312 66.894531 49.257812 67.097656 43.617188 61.871094 C 43.617188 61.871094 45.054688 64.535156 49.359375 65.867188 L 47.003906 68.433594 C 39.824219 68.328125 37.054688 63.511719 37.054688 63.511719 C 37.054688 52.847656 41.773438 44.335938 41.773438 44.335938 C 46.59375 40.953125 51 40.953125 51 40.953125 L 51.308594 41.363281 C 45.363281 43.003906 42.796875 45.667969 42.796875 45.667969 C 49.769531 40.953125 64.125 41.363281 69.765625 45.667969 C 69.867188 45.566406 66.382812 42.796875 60.949219 41.363281 L 61.460938 40.953125 C 61.460938 40.953125 65.871094 40.953125 70.6875 44.335938 C 75.507812 47.71875 75.40625 52.847656 75.40625 63.511719 C 75.40625 63.511719 72.636719 68.328125 65.460938 68.433594 Z M 65.460938 68.433594 " fill-opacity="1" fill-rule="nonzero"/><path fill="#7289da" d="M 53.460938 56.84375 C 53.460938 57.320312 53.378906 57.777344 53.207031 58.21875 C 53.035156 58.65625 52.789062 59.046875 52.472656 59.382812 C 52.15625 59.71875 51.789062 59.980469 51.375 60.160156 C 50.960938 60.34375 50.527344 60.433594 50.078125 60.433594 C 49.628906 60.433594 49.199219 60.34375 48.785156 60.160156 C 48.371094 59.980469 48.003906 59.71875 47.6875 59.382812 C 47.367188 59.046875 47.125 58.65625 46.953125 58.21875 C 46.78125 57.777344 46.695312 57.320312 46.695312 56.84375 C 46.695312 56.371094 46.78125 55.910156 46.953125 55.472656 C 47.125 55.03125 47.367188 54.644531 47.6875 54.308594 C 48.003906 53.972656 48.371094 53.710938 48.785156 53.53125 C 49.199219 53.347656 49.628906 53.257812 50.078125 53.257812 C 50.527344 53.257812 50.960938 53.347656 51.375 53.53125 C 51.789062 53.710938 52.15625 53.972656 52.472656 54.308594 C 52.789062 54.644531 53.035156 55.03125 53.207031 55.472656 C 53.378906 55.910156 53.460938 56.371094 53.460938 56.84375 Z M 53.460938 56.84375 " fill-opacity="1" fill-rule="nonzero"/><path fill="#7289da" d="M 65.355469 56.84375 C 65.355469 57.320312 65.273438 57.777344 65.101562 58.21875 C 64.929688 58.65625 64.683594 59.046875 64.367188 59.382812 C 64.050781 59.71875 63.683594 59.980469 63.269531 60.160156 C 62.855469 60.34375 62.421875 60.433594 61.972656 60.433594 C 61.523438 60.433594 61.09375 60.34375 60.679688 60.160156 C 60.265625 59.980469 59.898438 59.71875 59.582031 59.382812 C 59.261719 59.046875 59.019531 58.65625 58.847656 58.21875 C 58.675781 57.777344 58.589844 57.320312 58.589844 56.84375 C 58.589844 56.371094 58.675781 55.910156 58.847656 55.472656 C 59.019531 55.03125 59.261719 54.644531 59.582031 54.308594 C 59.898438 53.972656 60.265625 53.710938 60.679688 53.53125 C 61.09375 53.347656 61.523438 53.257812 61.972656 53.257812 C 62.421875 53.257812 62.855469 53.347656 63.269531 53.53125 C 63.683594 53.710938 64.050781 53.972656 64.367188 54.308594 C 64.683594 54.644531 64.929688 55.03125 65.101562 55.472656 C 65.273438 55.910156 65.355469 56.371094 65.355469 56.84375 Z M 65.355469 56.84375 " fill-opacity="1" fill-rule="nonzero"/></svg>