<?xml version="1.0"?>
<svg xmlns="http://www.w3.org/2000/svg" id="Layer_1" data-name="Layer 1" viewBox="0 0 32 32" width="512" height="512"><path d="M27,6H15.4141L12.707,3.293A1,1,0,0,0,12,3H5A3.0033,3.0033,0,0,0,2,6V26a3.0033,3.0033,0,0,0,3,3H27a3.0033,3.0033,0,0,0,3-3V9A3.0033,3.0033,0,0,0,27,6ZM5,5h6.5859L14.293,7.707A1,1,0,0,0,15,8H27a1.0013,1.0013,0,0,1,1,1v2.1843A2.9635,2.9635,0,0,0,27,11H5a2.9635,2.9635,0,0,0-1,.1843V6A1.0013,1.0013,0,0,1,5,5ZM28,26a1.0013,1.0013,0,0,1-1,1H5a1.0013,1.0013,0,0,1-1-1V14a1.0013,1.0013,0,0,1,1-1H27a1.0013,1.0013,0,0,1,1,1Z"/><path d="M20,19H17V16a1,1,0,0,0-2,0v3H12a1,1,0,0,0,0,2h3v3a1,1,0,0,0,2,0V21h3a1,1,0,0,0,0-2Z"/></svg>
