<svg id="Layer_2" height="512" viewBox="0 0 16 16" width="512" xmlns="http://www.w3.org/2000/svg" data-name="Layer 2"><path d="m11 5a3.5 3.5 0 1 0 -5.5122 2.8545 6.0045 6.0045 0 0 0 -3.9878 5.6455v1.5a.5.5 0 0 0 .5.5h11a.5.5 0 0 0 .5-.5v-1.5a6.0045 6.0045 0 0 0 -3.9878-5.6455 3.4931 3.4931 0 0 0 1.4878-2.8545zm1.5 8.5v1h-10v-1a5 5 0 0 1 10 0zm-7.5-8.5a2.5 2.5 0 1 1 2.5 2.5 2.5023 2.5023 0 0 1 -2.5-2.5z"/><path d="m15 3h-1v-1a.5.5 0 0 0 -1 0v1h-1a.5.5 0 0 0 0 1h1v1a.5.5 0 0 0 1 0v-1h1a.5.5 0 0 0 0-1z"/><path d="m5 13.5h5a.5.5 0 0 0 0-1h-5a.5.5 0 0 0 0 1z"/></svg>