<svg id="Layer_1" enable-background="new 0 0 512 512" height="512" viewBox="0 0 512 512" width="512" xmlns="http://www.w3.org/2000/svg"><g><path d="m195.999 344.076c-3.474-2.273-8.132-1.298-10.403 2.175-2.272 3.473-1.298 8.13 2.175 10.402 10.703 7.001 17.946 8.966 27.506 9.423v9.69c0 4.15 3.364 7.515 7.515 7.515s7.515-3.364 7.515-7.515v-10.26c18.601-3.36 29.463-18.562 31.85-32.759 3.029-18.014-6.4-33.678-24.021-39.906-2.571-.909-5.206-1.865-7.829-2.863v-40.648c6.949 1.416 11.106 4.967 11.441 5.262 3.052 2.77 7.772 2.563 10.573-.471 2.814-3.051 2.622-7.805-.429-10.619-.47-.432-8.486-7.642-21.585-9.402v-8.668c0-4.15-3.364-7.515-7.515-7.515s-7.515 3.365-7.515 7.515v9.245c-1.402.29-2.834.648-4.298 1.089-11.572 3.485-20.22 13.397-22.569 25.866-2.138 11.345 1.479 22.271 9.44 28.515 4.378 3.434 9.858 6.578 17.427 9.917v50.977c-6.983-.401-11.553-1.913-19.278-6.965zm11.128-65.753c-3.529-2.768-5.041-8.096-3.946-13.906 1.023-5.425 4.738-12.01 12.097-14.246v33.248c-3.094-1.614-5.877-3.313-8.151-5.096zm26 28.689c15.867 5.609 14.887 19.21 14.209 23.245-1.364 8.113-7.156 16.755-17.028 19.785v-44.039c.921.333 1.854.668 2.819 1.009z"/><path d="m479.328 365.533h-7.325c24.093-16.081 39.997-43.509 39.997-74.585 0-49.414-40.203-89.614-89.62-89.614-13.59 0-26.48 3.046-38.031 8.482-22.899-28.926-46.271-48.608-60.054-58.982 6.521-4.858 10.752-12.625 10.752-21.362 0-14.681-11.945-26.625-26.626-26.625h-3.757l27.42-72.3c5.827-14.146-5.788-30.969-21.08-30.538h-174.933c-15.293-.432-26.905 16.393-21.08 30.538l27.421 72.3h-3.756c-14.683 0-26.627 11.944-26.627 26.625 0 8.74 4.234 16.508 10.758 21.366-10.621 8.004-26.955 21.55-44.41 40.609-27.153 29.649-62.137 78.783-74.594 144.48-11.079 58.424 2.21 103.028 39.498 132.573 7.528 6.169 17.077-5.832 9.335-11.78-33.019-26.162-44.162-64.758-34.067-117.995 11.762-62.033 44.874-108.614 70.581-136.768 23.867-26.139 45.961-41.705 52.17-45.86h96.662c4.151 0 7.515-3.365 7.515-7.515s-3.364-7.515-7.515-7.515h-99.306c-6.395 0-11.597-5.202-11.597-11.596s5.203-11.596 11.597-11.596h155.076c.015 0 .029.002.044.002.009 0 .017-.002.026-.002h14.62c6.395 0 11.596 5.202 11.596 11.596s-5.202 11.596-11.596 11.596h-40.399c-4.151 0-7.515 3.364-7.515 7.515 0 4.15 3.364 7.515 7.515 7.515h37.752c7.339 4.918 36.856 25.806 65.417 61.337-23.213 16.211-38.43 43.117-38.43 73.514 0 31.076 15.904 58.505 39.997 74.586h-7.326c-12.474 0-22.623 10.148-22.623 22.623v13.596c0 3.532.815 6.877 2.265 9.859-2.982-1.45-6.327-2.265-9.859-2.265h-113.896c-12.475 0-22.624 10.148-22.624 22.622v13.596c0 5.802 2.198 11.1 5.802 15.108-3.604 4.009-5.802 9.306-5.802 15.108v13.596c0 2.503.415 4.909 1.169 7.161-51.849-1.899-93.181-10.214-123.057-24.791-3.729-1.82-8.229-.27-10.049 3.458-1.82 3.729-.272 8.229 3.458 10.049 35.854 17.495 86.513 26.488 150.572 26.733.178.004.354.014.532.014h113.895c5.802 0 11.1-2.198 15.109-5.802 4.009 3.604 9.306 5.802 15.108 5.802h113.895c12.475 0 22.624-10.149 22.624-22.623v-13.596c0-5.802-2.198-11.099-5.802-15.108 3.604-4.009 5.802-9.306 5.802-15.108v-13.596c0-5.802-2.198-11.099-5.802-15.108 3.604-4.009 5.802-9.306 5.802-15.108v-13.596c0-12.476-10.149-22.625-22.624-22.625zm-350.283-340.316c-1.958-4.713 1.926-10.34 7.027-10.179h174.932c5.102-.161 8.987 5.466 7.027 10.179l-29.442 77.63h-130.103zm218.746 265.731c0-41.126 33.46-74.585 74.589-74.585s74.59 33.459 74.59 74.585c0 41.127-33.461 74.586-74.59 74.586-41.129-.001-74.589-33.46-74.589-74.586zm10.048 97.208c0-4.187 3.406-7.594 7.593-7.594h113.895c4.187 0 7.594 3.406 7.594 7.594v13.596c0 4.187-3.407 7.594-7.594 7.594h-113.894c-4.187 0-7.593-3.406-7.593-7.594v-13.596zm-144.113 43.813c0-4.187 3.407-7.593 7.594-7.593h113.895c4.187 0 7.594 3.406 7.594 7.593v13.596c0 4.187-3.407 7.594-7.594 7.594h-113.895c-4.187 0-7.594-3.406-7.594-7.594zm121.489 65.002h-113.881c-.07-.002-.139-.011-.209-.011-.011 0-.021 0-.032 0-4.081-.122-7.367-3.472-7.367-7.582v-13.596c0-4.187 3.407-7.593 7.594-7.593h113.895c4.187 0 7.594 3.407 7.594 7.593v13.596c.001 4.186-3.407 7.593-7.594 7.593zm151.707-7.594c0 4.187-3.407 7.594-7.594 7.594h-113.895c-4.187 0-7.593-3.407-7.593-7.594v-13.596c0-4.187 3.406-7.593 7.593-7.593h59.953c4.151 0 7.515-3.364 7.515-7.515 0-4.15-3.364-7.514-7.515-7.514h-59.953c-4.187 0-7.593-3.406-7.593-7.594v-13.596c0-4.187 3.406-7.593 7.593-7.593h113.895c4.187 0 7.594 3.406 7.594 7.593v13.596c0 4.187-3.407 7.594-7.594 7.594h-23.882c-4.151 0-7.515 3.364-7.515 7.514s3.364 7.515 7.515 7.515h23.882c4.187 0 7.594 3.407 7.594 7.593z"/><path d="m422.38 236.633c-29.95 0-54.317 24.366-54.317 54.315s24.367 54.315 54.317 54.315c29.951 0 54.318-24.366 54.318-54.315s-24.367-54.315-54.318-54.315zm0 93.6c-21.663 0-39.287-17.624-39.287-39.286s17.624-39.285 39.287-39.285 39.288 17.624 39.288 39.285c0 21.663-17.624 39.286-39.288 39.286z"/></g></svg>