<svg id="Layer_1" enable-background="new 0 0 32 32" height="512" viewBox="0 0 32 32" width="512" xmlns="http://www.w3.org/2000/svg"><g fill="rgb(0,0,0)"><path d="m28 7h-14c0-1.103-.897-2-2-2h-2c-1.103 0-2 .897-2 2h-4c-.552 0-1 .447-1 1s.448 1 1 1h4c0 1.103.897 2 2 2h2c1.103 0 2-.897 2-2h14c.552 0 1-.447 1-1s-.448-1-1-1zm-18 2v-2h2l.001.996c0 .002-.001.003-.001.004s.001.002.001.004v.996z"/><path d="m28 15h-6c0-1.103-.897-2-2-2h-2c-1.103 0-2 .897-2 2h-12c-.552 0-1 .447-1 1s.448 1 1 1h12c0 1.103.897 2 2 2h2c1.103 0 2-.897 2-2h6c.552 0 1-.447 1-1s-.448-1-1-1zm-10 2v-2h2l.001.996c0 .002-.001.003-.001.004s.001.002.001.004v.996z"/><path d="m28 23h-14c0-1.103-.897-2-2-2h-2c-1.103 0-2 .897-2 2h-4c-.552 0-1 .447-1 1s.448 1 1 1h4c0 1.103.897 2 2 2h2c1.103 0 2-.897 2-2h14c.552 0 1-.447 1-1s-.448-1-1-1zm-18 2v-2h2l.001.996c0 .002-.001.003-.001.004s.001.002.001.004v.996z"/></g></svg>