<svg height="512" viewBox="0 0 2000 2000" width="512" xmlns="http://www.w3.org/2000/svg"><g id="Layer_2" fill="rgb(0,0,0)" data-name="Layer 2"><path d="m1164.5 1361.4h-592.6a89 89 0 0 1 -88.9-88.9v-722.8a89 89 0 0 1 88.9-88.9h592.6a89 89 0 0 1 88.9 88.9v722.8a89 89 0 0 1 -88.9 88.9zm-592.6-830.6a18.9 18.9 0 0 0 -18.9 18.9v722.8a18.9 18.9 0 0 0 18.9 18.9h592.6a18.9 18.9 0 0 0 18.9-18.9v-722.8a18.9 18.9 0 0 0 -18.9-18.9z"/><path d="m1399.6 1539.2h-592.6a89 89 0 0 1 -88.9-88.9 35 35 0 0 1 70 0 18.9 18.9 0 0 0 18.9 18.9h592.6a18.9 18.9 0 0 0 18.9-18.9v-722.8a18.9 18.9 0 0 0 -18.9-18.9h-71.7a35 35 0 0 1 0-70h71.7a89 89 0 0 1 88.9 88.9v722.8a89 89 0 0 1 -88.9 88.9z"/></g></svg>