<svg id="Layer_1" height="512" viewBox="0 0 24 24" width="512" xmlns="http://www.w3.org/2000/svg" data-name="Layer 1"><path d="m12 22.87-3.26-3.26h-3.42a4.78 4.78 0 0 1 -4.77-4.77v-9.54a4.78 4.78 0 0 1 4.77-4.78h13.36a4.78 4.78 0 0 1 4.77 4.78v9.54a4.78 4.78 0 0 1 -4.77 4.77h-3.42zm-6.68-20.44a2.88 2.88 0 0 0 -2.87 2.87v9.54a2.88 2.88 0 0 0 2.87 2.87h4.21l2.47 2.46 2.47-2.46h4.21a2.88 2.88 0 0 0 2.87-2.87v-9.54a2.88 2.88 0 0 0 -2.87-2.87z"/><path d="m10.09 12.93h3.82v1.91h-3.82z"/><path d="m12.95 13.89h-1.9v-4.78h-.96v-1.9h2.86z"/><path d="m11.05 4.34h1.91v1.91h-1.91z"/></svg>