<svg id="Layer_1" enable-background="new 0 0 25 25" height="512" viewBox="0 0 25 25" width="512" xmlns="http://www.w3.org/2000/svg"><g id="_x31_5"><path d="m12.5 1.4992676c-2.7568359 0-5 2.2431641-5 5v.0014648h-2.8754883l-2.2666016 17h20.2841797l-2.2666016-17h-2.8754882v-.0014648c0-2.756836-2.2431641-5-5-5zm-3 5c0-1.6542969 1.3457031-3 3-3s3 1.3457031 3 3v.0014648h-6zm10.8579102 15.0014648h-15.7158204l1.7333984-13h12.2490234z"/><path d="m12.5 17.6687012c-.4599609 0-.8339844-.3740234-.8339844-.8339844h-2c0 1.2093506.7651367 2.2365723 1.8339844 2.6426392v1.0248413h2v-1.0248413c1.0686035-.4061279 1.8334961-1.4332886 1.8334961-2.6426392 0-1.5625-1.2709961-2.8339844-2.8334961-2.8339844-.4599609 0-.8339844-.3740234-.8339844-.8334961 0-.4599609.3740234-.8339844.8339844-.8339844.4594727 0 .8334961.3740234.8334961.8339844h2c0-1.2093506-.7648926-2.2365112-1.8334961-2.6426392v-1.0253295h-2v1.0253296c-1.0688477.4060669-1.8339844 1.4332886-1.8339844 2.6426392 0 1.5625 1.2714844 2.8334961 2.8339844 2.8334961.4594727 0 .8334961.3740234.8334961.8339844s-.3740234.8339843-.8334961.8339843z"/></g></svg>