<svg height="512" viewBox="0 0 512 512" width="512" xmlns="http://www.w3.org/2000/svg"><g id="_37_Cloud_Computing" data-name="37 Cloud Computing"><path d="m306 290.93c-30.76 0-60-14.58-82.35-41-20.39-24.15-32.09-55.27-32.09-85.37 0-63.18 51.34-114.56 114.44-114.56s114.44 51.38 114.44 114.52c0 30.1-11.7 61.22-32.09 85.37-22.35 26.46-51.59 41.04-82.35 41.04zm0-190.93a64.56 64.56 0 0 0 -64.44 64.52c0 34.61 28.74 76.41 64.44 76.41s64.44-41.8 64.44-76.41a64.56 64.56 0 0 0 -64.44-64.52z"/><path d="m487 512a25 25 0 0 1 -25-25v-48.65c0-40-23.85-63.82-63.8-63.82h-184.4c-40 0-63.8 23.86-63.8 63.82v48.65a25 25 0 0 1 -50 0v-48.65c0-33 11-61.44 31.66-82.15s49.12-31.67 82.14-31.67h184.4c33 0 61.43 11 82.14 31.67s31.66 49.12 31.66 82.15v48.65a25 25 0 0 1 -25 25z"/><path d="m143 271h-118a25 25 0 0 1 0-50h118a25 25 0 0 1 0 50z"/><path d="m84 329.5a25 25 0 0 1 -25-25v-117a25 25 0 0 1 50 0v117a25 25 0 0 1 -25 25z"/></g></svg>