<svg id="Layer_1" enable-background="new 0 0 24 24" height="512" viewBox="0 0 24 24" width="512" xmlns="http://www.w3.org/2000/svg"><g><path d="m18 1h-12c-2.757 0-5 2.243-5 5v8c0 2.414 1.721 4.434 4 4.899v3.101c0 .369.203.708.528.882.148.079.31.118.472.118.194 0 .387-.057.555-.168l5.748-3.832h5.697c2.757 0 5-2.243 5-5v-8c0-2.757-2.243-5-5-5zm-6.555 16.168-4.445 2.963v-2.131c0-.552-.448-1-1-1-1.654 0-3-1.346-3-3v-8c0-1.654 1.346-3 3-3h12c1.654 0 3 1.346 3 3v8c0 1.654-1.346 3-3 3h-6c-.07-.001-.17.006-.284.04-.12.035-.211.087-.271.128z"/><path d="m18 7h-12c-.552 0-1 .448-1 1s.448 1 1 1h12c.552 0 1-.448 1-1s-.448-1-1-1z"/><path d="m16 11h-8c-.552 0-1 .448-1 1s.448 1 1 1h8c.552 0 1-.448 1-1s-.448-1-1-1z"/></g></svg>