<svg id="Capa_1" enable-background="new 0 0 512 512" height="512" viewBox="0 0 512 512" width="512" xmlns="http://www.w3.org/2000/svg"><g><circle cx="372" cy="256" r="20"/><path d="m100 476h272c35.587 0 68.774-19.153 86.609-49.985 5.531-9.561 2.264-21.796-7.297-27.327-9.562-5.531-21.796-2.264-27.327 7.297-10.709 18.514-30.629 30.015-51.985 30.015h-272c-33.084 0-60-26.916-60-60v-240c0-33.084 26.916-60 60-60h272c21.356 0 41.276 11.501 51.985 30.015 5.531 9.562 17.765 12.828 27.327 7.297 9.561-5.531 12.828-17.765 7.297-27.327-17.835-30.832-51.022-49.985-86.609-49.985h-272c-55.14 0-100 44.86-100 100v240c0 55.14 44.86 100 100 100z"/><path d="m452 156h-80c-55.14 0-100 44.86-100 100s44.86 100 100 100h80c33.084 0 60-26.916 60-60v-80c0-33.084-26.916-60-60-60zm20 140c0 11.028-8.972 20-20 20h-80c-33.084 0-60-26.916-60-60s26.916-60 60-60h80c11.028 0 20 8.972 20 20z"/></g></svg>