<svg id="svg8" height="512" viewBox="0 0 8.4666664 8.4666672" width="512" xmlns="http://www.w3.org/2000/svg" xmlns:svg="http://www.w3.org/2000/svg"><g id="layer1" transform="translate(0 761.333)"><path id="path1955" d="m5.0270829-754.18915c0-.43517-.359624-.7953-.794782-.7953-.43516 0-.792718.36013-.792718.7953 0 .43515.357553.79271.792978.79297l.795557.0008c1.167709 0 2.114553-.94858 2.115116-2.11615.434922-.00027.794266-.3598.794266-.79479v-1.58801c0-.43516-.359619-.79324-.794782-.79324 0-1.16805-.947576-2.11718-2.115635-2.11718h-1.5875c-1.168056 0-2.117182.94913-2.117182 2.11718-.435166 0-.793234.35808-.793234.79324v1.58799c0 .43517.358076.79479.793234.79479h.529166c.435158 0 .792716-.35962.792716-.79479v-1.58801c0-.43516-.357553-.79324-.792716-.79324 0-.88405.703967-1.58801 1.588016-1.58801h1.5875c.884053 0 1.58595.70396 1.58595 1.58801-.435163 0-.792716.35808-.792716.79324v1.58801c0 .43517.357558.79479.793232.79479-.000011.88356-.701731 1.58798-1.585431 1.58698m-3.705717-4.23333h.529166c.151154 0 .265618.11239.265618.26355v1.58801c0 .15117-.114458.26562-.265618.26562h-.529166c-.151159 0-.264068-.11445-.264068-.26562v-1.58801c0-.15116.112914-.26355.264068-.26355zm5.290632 0h.529685c.151154 0 .265615.11239.265615.26355v1.58801c0 .15117-.114456.26562-.265615.26562h-.529685c-.151159 0-.263549-.11445-.263549-.26562v-1.58801c0-.15116.112398-.26355.263549-.26355zm-2.380732 3.70313c.15116 0 .265616.11446.265616.26562 0 .15115-.114464.26355-.265616.26355-.151153 0-.263551-.1124-.263551-.26355 0-.15116.11239-.26562.263551-.26562z" font-variant-ligatures="normal" font-variant-position="normal" font-variant-caps="normal" font-variant-numeric="normal" font-variant-alternates="normal" font-variant-east-asian="normal" font-feature-settings="normal" font-variation-settings="normal" text-indent="0" text-align="start" text-decoration-line="none" text-decoration-style="solid" text-decoration-color="rgb(0,0,0)" text-transform="none" text-orientation="mixed" white-space="normal" shape-padding="0" shape-margin="0" inline-size="0" isolation="auto" mix-blend-mode="normal" solid-color="rgb(0,0,0)" solid-opacity="1" vector-effect="none" paint-order="fill markers stroke"/></g></svg>