<svg height="512pt" viewBox="0 -12 512.00098 512" width="512pt" xmlns="http://www.w3.org/2000/svg"><path d="m332.308594 216.617188h54.152344c8.15625 0 14.769531-6.613282 14.769531-14.769532s-6.613281-14.769531-14.769531-14.769531h-24.613282v-14.769531c0-8.15625-6.613281-14.769532-14.769531-14.769532s-14.769531 6.613282-14.769531 14.769532v14.769531c-21.71875 0-39.386719 17.667969-39.386719 39.382813 0 21.71875 17.667969 39.386718 39.386719 39.386718h29.539062c5.425782 0 9.84375 4.414063 9.84375 9.84375 0 5.429688-4.417968 9.847656-9.84375 9.847656h-54.15625c-8.15625 0-14.769531 6.613282-14.769531 14.769532s6.613281 14.769531 14.769531 14.769531h24.617188v14.769531c0 8.15625 6.613281 14.769532 14.769531 14.769532s14.769531-6.613282 14.769531-14.769532v-14.769531c21.714844 0 39.382813-17.667969 39.382813-39.386719 0-21.714844-17.667969-39.382812-39.382813-39.382812h-29.539062c-5.429688 0-9.847656-4.417969-9.847656-9.847656 0-5.429688 4.417968-9.84375 9.847656-9.84375zm0 0"/><path d="m467.691406 78.769531h-137.84375v-34.460937c0-24.433594-19.878906-44.308594-44.308594-44.308594h-241.230468c-24.433594 0-44.308594 19.875-44.308594 44.308594v241.230468c0 24.429688 19.875 44.308594 44.308594 44.308594h19.691406v64c0 4.707032 2.316406 9.230469 6.136719 11.984375 4.648437 3.347657 10.988281 3.679688 15.960937.839844l96.054688-54.890625v12.527344c0 24.429687 19.878906 44.308594 44.308594 44.308594h65.003906l134.4375 76.820312c4.972656 2.84375 11.3125 2.507812 15.960937-.835938 3.820313-2.753906 6.136719-7.277343 6.136719-11.988281v-64h19.691406c24.433594 0 44.308594-19.875 44.308594-44.304687v-241.230469c0-24.433594-19.875-44.308594-44.308594-44.308594zm-374.152344 289.625v-53.316406c0-8.15625-6.613281-14.769531-14.769531-14.769531h-34.460937c-8.144532 0-14.769532-6.625-14.769532-14.769532v-241.230468c0-8.144532 6.625-14.769532 14.769532-14.769532h241.230468c8.144532 0 14.769532 6.625 14.769532 14.769532v34.460937h-73.847656c-24.429688 0-44.308594 19.875-44.308594 44.308594v194.679687zm388.921876-4.085937c0 8.144531-6.625 14.769531-14.769532 14.769531h-34.460937c-8.15625 0-14.769531 6.613281-14.769531 14.769531v53.316406l-115.75-66.140624c-2.230469-1.277344-4.757813-1.945313-7.328126-1.945313h-68.921874c-8.144532 0-14.769532-6.628906-14.769532-14.769531v-241.230469c0-8.144531 6.625-14.769531 14.769532-14.769531h241.230468c8.144532 0 14.769532 6.625 14.769532 14.769531zm0 0"/></svg>