<?xml version="1.0" encoding="UTF-8"?>
<!-- Generator: Adobe Illustrator 24.3.0, SVG Export Plug-In . SVG Version: 6.00 Build 0)  -->
<svg xmlns="http://www.w3.org/2000/svg" xmlns:xlink="http://www.w3.org/1999/xlink" version="1.1" id="Capa_1" x="0px" y="0px" viewBox="0 0 512.001 512.001" style="enable-background:new 0 0 512.001 512.001;" xml:space="preserve" width="512" height="512">
<g>
	<g id="object_1_">
		<g>
			<path d="M471.32,512.001H332.892c-16.069-0.021-29.089-13.043-29.108-29.112v-146.82c0.121-26.09-20.931-47.339-47.021-47.46     c-26.09-0.121-47.339,20.931-47.46,47.021c-0.001,0.146-0.001,0.292,0,0.439v146.82c-0.018,16.07-13.041,29.093-29.111,29.112     H40.681c-9.743,0-17.642-7.898-17.642-17.642V183.537c0-5.473,2.54-10.635,6.875-13.975L245.233,3.667     c6.346-4.889,15.189-4.889,21.535,0l215.318,165.895c4.335,3.34,6.875,8.503,6.875,13.975v310.822     C488.961,504.102,481.063,512.001,471.32,512.001z M339.064,476.717h114.614V192.216L256,39.913L58.322,192.216v284.502h115.694     V336.069c-0.159-45.577,36.66-82.653,82.236-82.812c45.577-0.159,82.653,36.66,82.812,82.236c0.001,0.192,0.001,0.384,0,0.575     V476.717z"/>
		</g>
	</g>
</g>















</svg>
